{"title":"The Recruit - S02E06","uid":15647026,"size":1352196246,"categoryP":"video","categoryS":"tv_shows","magnet":"?xt=urn:btih:0f351e790d6269c2e1db584d0b17d49b8fa1526f&amp;dn=The+Recruit+-+S02E06&amp;tr=udp%3A%2F%2Ftracker.leechers-paradise.org%3A6969&amp;tr=udp%3A%2F%2Fzer0day.ch%3A1337&amp;tr=udp%3A%2F%2Fopen.demonii.com%3A1337&amp;tr=udp%3A%2F%2Ftracker.coppersurfer.tk%3A6969&amp;tr=udp%3A%2F%2Fexodus.desync.com%3A6969","seeders":3,"leechers":0,"uploader":"Bullrout","files":1,"time":1472060787,"description":"The Recruit - S02E06\r\n\r\nDedication is put to the test, as eight remain in the running for their dream prize: a contract with an AFL club. After a tough training session at the home of the Western Bulldogs, the recruits are shocked by an early morning wake-up from Barry Hall. All fly to Newcastle to compete in the Captain's Raw Challenge, and the winner runs the recruits out for a battle on the SCG against the Sydney Swans Academy. It's a strategic de-list but things don't go to everyone's plan and a favourite says goodbye.\r\n\r\nComplete name                            : The Recruit - S02E06.mkv\r\nFormat                                   : Matroska\r\nFormat version                           : Version 4 / Version 2\r\nFile size                                : 1.26 GiB\r\nDuration                                 : 54mn 19s\r\nOverall bit rate mode                    : Variable\r\nOverall bit rate                         : 3 319 Kbps\r\nEncoded date                             : UTC 2016-08-24 15:07:13\r\nWriting application                      : mkvmerge v9.4.0 ('Knurl') 64bit\r\nWriting library                          : libebml v1.3.4 + libmatroska v1.4.5\r\n\r\nVideo\r\nID                                       : 2\r\nFormat                                   : AVC\r\nFormat/Info                              : Advanced Video Codec\r\nFormat profile                           :   \r\nFormat settings, CABAC                   : Yes\r\nFormat settings, ReFrames                : 3 frames\r\nCodec ID                                 : V_MPEG4/ISO/AVC\r\nDuration                                 : 54mn 19s\r\nBit rate mode                            : Variable\r\nBit rate                                 : 2 933 Kbps\r\nMaximum bit rate                         : 3 000 Kbps\r\nWidth                                    : 1 280 pixels\r\nHeight                                   : 720 pixels\r\nDisplay aspect ratio                     : 16:9\r\nFrame rate mode                          : Constant\r\nFrame rate                               : 25.000 fps\r\nStandard                                 : PAL\r\nColor space                              : YUV\r\nChroma subsampling                       : 4:2:0\r\nBit depth                                : 8 bits\r\nScan type                                : Progressive\r\nBits/(Pixel*Frame)                       : 0.127\r\nStream size                              : 1.11 GiB (88%)\r\nWriting library                          : x264 core 112\r\nDefault                                  : Yes\r\nForced                                   : No\r\nColor range                              : Limited\r\nColor primaries                          : BT.709\r\nTransfer characteristics                 : BT.709\r\nMatrix coefficients                      : BT.709\r\n\r\nAudio\r\nID                                       : 1\r\nFormat                                   : AC-3\r\nFormat/Info                              : Audio Coding 3\r\nMode extension                           : CM (complete main)\r\nFormat settings, Endianness              : Big\r\nCodec ID                                 : A_AC3\r\nDuration                                 : 54mn 19s\r\nBit rate mode                            : Constant\r\nBit rate                                 : 384 Kbps\r\nChannel(s)                               : 6 channels\r\nChannel positions                        : Front: L C R, Side: L R, LFE\r\nSampling rate                            : 48.0 KHz\r\nFrame rate                               : 31.250 fps (1536 spf)\r\nCompression mode                         : Lossy\r\nStream size                              : 149 MiB (12%)\r\nDefault                                  : Yes\r\nForced                                   : No","torrent":{"xt":"urn:btih:0f351e790d6269c2e1db584d0b17d49b8fa1526f","amp;dn":"The+Recruit+-+S02E06","amp;tr":["udp%3A%2F%2Ftracker.leechers-paradise.org%3A6969","udp%3A%2F%2Fzer0day.ch%3A1337","udp%3A%2F%2Fopen.demonii.com%3A1337","udp%3A%2F%2Ftracker.coppersurfer.tk%3A6969","udp%3A%2F%2Fexodus.desync.com%3A6969"],"infoHash":"0f351e790d6269c2e1db584d0b17d49b8fa1526f","infoHashBuffer":{"type":"Buffer","data":[15,53,30,121,13,98,105,194,225,219,88,77,11,23,212,155,143,161,82,111]},"announce":[],"urlList":[]}}